<svg width="25" height="33" viewBox="0 0 25 33" fill="currentColor" xmlns="http://www.w3.org/2000/svg">
<path fill-rule="evenodd" clip-rule="evenodd" d="M16.875 0.916687C17.387 0.9167 17.8899 1.05147 18.3333 1.30746C18.7767 1.56346 19.1449 1.93164 19.4008 2.37502H21.25C22.0236 2.37502 22.7654 2.68231 23.3124 3.22929C23.8594 3.77627 24.1667 4.51814 24.1667 5.29169V22.7917C24.1667 24.7256 23.3984 26.5802 22.031 27.9477C20.6635 29.3151 18.8089 30.0834 16.875 30.0834H3.75C2.97645 30.0834 2.23459 29.7761 1.68761 29.2291C1.14063 28.6821 0.833336 27.9402 0.833336 27.1667V5.29169C0.833336 4.51814 1.14063 3.77627 1.68761 3.22929C2.23459 2.68231 2.97645 2.37502 3.75 2.37502H5.59917C5.85515 1.93164 6.22334 1.56346 6.66671 1.30746C7.11009 1.05147 7.61303 0.9167 8.125 0.916687H16.875ZM16.6183 11.6777L10.4321 17.8654L8.36854 15.8019C8.0935 15.5362 7.72512 15.3893 7.34275 15.3926C6.96038 15.3959 6.59461 15.5493 6.32423 15.8197C6.05384 16.09 5.90047 16.4558 5.89714 16.8382C5.89382 17.2206 6.04081 17.5889 6.30646 17.864L9.29605 20.855C9.44502 21.0041 9.62189 21.1223 9.81657 21.203C10.0112 21.2836 10.2199 21.3251 10.4306 21.3251C10.6414 21.3251 10.85 21.2836 11.0447 21.203C11.2394 21.1223 11.4162 21.0041 11.5652 20.855L18.6819 13.7398C18.8173 13.6043 18.9247 13.4435 18.9979 13.2665C19.0711 13.0895 19.1088 12.8998 19.1087 12.7083C19.1087 12.5167 19.0709 12.327 18.9975 12.1501C18.9241 11.9732 18.8166 11.8124 18.6812 11.677C18.5457 11.5416 18.3848 11.4342 18.2078 11.361C18.0308 11.2877 17.8411 11.2501 17.6496 11.2501C17.458 11.2502 17.2684 11.288 17.0914 11.3614C16.9145 11.4347 16.7537 11.5422 16.6183 11.6777ZM16.1458 3.83335H8.85417C8.68351 3.8333 8.51823 3.8931 8.38713 4.00236C8.25602 4.11161 8.16739 4.2634 8.13667 4.43127L8.125 4.56252V6.02085C8.12495 6.19152 8.18475 6.35679 8.29401 6.4879C8.40326 6.619 8.55504 6.70763 8.72292 6.73835L8.85417 6.75002H16.1458C16.3165 6.75008 16.4818 6.69027 16.6129 6.58101C16.744 6.47176 16.8326 6.31998 16.8633 6.1521L16.875 6.02085V4.56252C16.8751 4.39186 16.8153 4.22658 16.706 4.09548C16.5967 3.96437 16.445 3.87574 16.2771 3.84502L16.1458 3.83335Z" fill="currentColor"/>
</svg>
