<svg width="26" height="20" viewBox="0 0 26 20" fill="currentColor" xmlns="http://www.w3.org/2000/svg">
<path d="M22.9608 4.16339V3.80772C22.9608 2.17271 21.6306 0.842499 19.9956 0.842499H2.96522C1.33016 0.84255 0 2.17271 0 3.80772V4.16339H22.9608Z" fill="currentColor"/>
<path d="M13.5651 13.7017C13.5651 12.1636 14.0598 10.7017 14.9731 9.49683H0V13.6331C0 15.2681 1.33016 16.5983 2.96522 16.5983H14.1911C13.7813 15.7007 13.5651 14.7179 13.5651 13.7017ZM11.4804 12.803H8.92125V11.2796H11.4804V12.803ZM3.41545 11.2796H7.39781V12.803H3.41545V11.2796Z" fill="currentColor"/>
<path d="M16.5547 7.97342C17.7165 7.16056 19.0967 6.72262 20.5443 6.72262C21.3822 6.72262 22.1973 6.86974 22.9608 7.15091V5.68689H0V7.97342H16.5547Z" fill="currentColor"/>
<path d="M26 13.7017C26 10.6886 23.5573 8.24603 20.5442 8.24603C17.5311 8.24603 15.0885 10.6886 15.0885 13.7017C15.0885 16.7148 17.5311 19.1574 20.5442 19.1574C23.5573 19.1574 26 16.7148 26 13.7017ZM21.2796 16.6163V17.2363H20.5179V17.2363V17.2363H19.7562V16.6209C19.2957 16.4649 18.9189 16.1906 18.5509 15.9215L19.4503 14.6918C19.9446 15.0534 20.1976 15.2271 20.5442 15.2271C20.7402 15.2271 20.8989 15.1339 20.9585 14.9837C21.0305 14.8019 20.9287 14.6344 20.6861 14.5356C20.6861 14.5356 19.5973 14.1725 19.0939 13.6593C18.6715 13.2287 18.5372 12.6219 18.6716 12.0447C18.807 11.4635 19.1994 11.009 19.7562 10.7821V10.167H21.2796V10.7566C21.6665 10.8641 21.994 11.0229 22.1823 11.1251L21.4555 12.4639C20.9736 12.2024 20.5303 12.1238 20.3577 12.1828C20.1903 12.24 20.1648 12.3492 20.1552 12.3903C20.1417 12.4486 20.1344 12.538 20.2276 12.6418C20.3172 12.7416 21.2605 13.1247 21.2605 13.1247C22.2782 13.539 22.7572 14.5795 22.3747 15.5449C22.176 16.0466 21.776 16.4266 21.2796 16.6163Z" fill="currentColor"/>
</svg>
