<svg width="100%" height="100%" viewBox="0 0 100 100" version="1.1" xmlns="http://www.w3.org/2000/svg" xmlns:xlink="http://www.w3.org/1999/xlink" xml:space="preserve" xmlns:serif="http://www.serif.com/" style="fill-rule:evenodd;clip-rule:evenodd;stroke-linejoin:round;stroke-miterlimit:2;">
    <g transform="matrix(0.1,0,0,-0.1,0,100)">
        <g transform="matrix(10,0,0,-10,0,1000)">
            <rect x="4" y="40" width="22" height="20" fill="currentColor"/>
        </g>
        <g transform="matrix(10,0,0,-10,0,1000)">
            <path d="M31.5,65.6C35,67.2 38,72.1 38,76C38,79.9 35,84.8 31.5,86.4C27.7,88.2 19.4,88.5 15.3,86.9C8.4,84.3 4,77.4 4,69L4,64L16.1,64C25,64 29.1,64.4 31.5,65.6Z" fill="currentColor"/>
        </g>
        <g transform="matrix(10,0,0,-10,0,1000)">
            <path d="M96,68.9C96,80.7 88.7,88 76.9,88C70.3,88 65.6,85.7 63.6,81.5C61.6,77.4 61.6,74.7 63.5,70.6C66.2,65 69,64.1 83.3,64L96,64L96,68.9Z" fill="currentColor"/>
        </g>
        <g transform="matrix(10,0,0,-10,0,1000)">
            <rect x="74" y="40" width="22" height="20" fill="currentColor"/>
        </g>
        <g transform="matrix(10,0,0,-10,0,1000)">
            <path d="M85.3,13.4C89.2,15 93.5,19.5 94.9,23.3C95.5,24.9 96,28.4 96,31.1L96,36L84,36C73.3,36 71.8,35.8 70,34C66.5,30.5 67.9,25.9 73,24.2C76.2,23 76.9,21.3 74.5,20.4C70.4,18.8 64,24.7 64,30C64,32.8 66.6,37.6 68.5,38.3C70.7,39.2 70.8,61 68.5,61C66,61 60.2,66.9 58.9,70.7C57.4,75.3 58.2,81.1 61,85L63.1,88L36.9,88L39,85C41.8,81.1 42.6,75.3 41.1,70.7C39.8,66.9 34,61 31.5,61C29.2,61 29.3,39.2 31.5,38.3C33.4,37.6 36,32.8 36,30.1C36,26.7 33.7,22.9 30.9,21.4C29.3,20.6 25.4,20 22,20C16.7,20 16,20.2 16,22C16,23.8 16.7,24 22,24C28.5,24 32,26.1 32,30C32,31.1 31.1,32.9 30,34C28.2,35.8 26.7,36 16,36L4,36L4,31.1C4,25 5.3,21.4 8.8,17.6C13.9,12.2 14.8,12.1 49.8,12C75,12 82.8,12.3 85.3,13.4Z" fill="currentColor"/>
        </g>
    </g>
</svg>
